<svg width="164pt" height="37pt" viewBox="0 0 164 37" xmlns="http://www.w3.org/2000/svg"><path fill="#fff" d="M0 0h164v37H0V0z"/><path fill="#137ebe" d="M17.43 2.41c1.18-.92 1.88-.69 2.09.69-1.17.91-1.87.68-2.09-.69z"/><path fill="#137ebe" d="M11.89 14.58c-1.84-4.88.07-10.08 3.86-13.44-.14.82-.41 2.47-.55 3.3 5.52-.69 11.49 1.12 14.87 5.73 3.78 4.66 3.83 11.23 1.63 16.6-3.54-5.07-6.43-10.55-9.93-15.64-1.1-1.69-3.51-3.34-5.43-1.89-1.72 1.57-2.99 3.55-4.45 5.34z"/><path fill="#137ebe" d="M20.3 2.06c6.47 1.42 12.16 5.84 14.31 12.22-.44-.11-1.33-.35-1.77-.46-1.5-5.77-7.09-9.34-12.64-10.48l.1-1.28z"/><path fill="#71706f" d="M.01 18.96c1.47-6.65 5.33-13.47 12.21-15.7-3.84 3.61-9.02 6.71-9.65 12.5 2.01-3.13 3.83-6.44 6.68-8.91-1.19 3.81-1.15 7.87.83 11.41-1.65 2.88-3.43 5.68-5.26 8.44-.6-.83-1.78-2.5-2.38-3.34 1.39 6.09 6.67 11.35 13.04 11.82-3.8-1.74-7.6-3.68-10.24-7.04 1.82-.12 3.65-.23 5.47-.33 1.08-1.73 2.17-3.44 3.26-5.15 7.03 4.38 14.02 8.82 21.07 13.18-2.66-.98-5.21-2.33-8.02-2.81-2.35-.04-4.53 1.03-6.67 1.88 2.88-.22 5.73-.71 8.61-.84-5.26 2.7-11.2 1.01-16.82 1.62C5.03 33.43.88 25.94.01 18.96z"/><path fill="#137ebe" d="M42 25.92c2.83-4.58 6-8.93 8.96-13.42 1.27.43 2.99.21 3.81 1.5 2.65 3.42 4.72 7.24 7.32 10.7.18.03.53.1.71.13.52-4.02.2-8.09.25-12.13 4.61.13 9.28-.42 13.85.35 3.87 1.24 3.38 6.41 2.68 9.57-1.13 3.62-5.59 3.01-8.55 3.09-5.58-.38-11.93 1.5-16.75-2.23 2.82-2.18-.96-4.65-1.72-6.86-1.15 1.53-2.28 3.08-3.43 4.61.35.94.71 1.88 1.07 2.82-2.59 1.18-5.38 1.7-8.2 1.87z"/><path fill="#71706f" d="M81.44 12.79c1.78.02 3.56.04 5.33.07 1.62 2.75 3.16 5.54 5.01 8.14 2.45-2.21 3.68-5.4 5.43-8.13 1.76-.04 3.52-.06 5.27-.09.09 4.47.16 8.97-.62 13.39l-2.68-.92c-.26-2.89-.17-5.8-.24-8.7-2.11 3.05-3.72 6.47-6.27 9.19-.33 0-.99.01-1.32.01-2.61-2.7-4.18-6.2-6.38-9.22-.09 3.02-.09 6.03-.06 9.05l-3.46.16c-.02-4.32-.02-8.63-.01-12.95zm21.12 11.16c3.5-3.26 5.73-7.57 8.44-11.46 1.96.22 3.89.84 4.77 2.76 1.88 3.25 4.86 6.06 6.05 9.57-2.2 1.76-4.91-.01-7.17-.68.36-.9.72-1.79 1.09-2.68-1.13-1.6-2.24-3.21-3.37-4.81-1.05 1.59-2.11 3.17-3.18 4.75.35.9.7 1.8 1.04 2.7-1.94.66-3.9 1.26-5.89 1.76-.6-.63-1.2-1.27-1.78-1.91zm20.15-11.24c1.94.19 4.06-.22 5.9.55 2.76 2.77 4.91 6.09 7.55 8.99.09-3.14.1-6.29.09-9.43 1.15.03 2.31.05 3.47.08-.04 4.29-.03 8.58-.04 12.88-1.8-.05-3.6 0-5.39-.24-3.16-2.76-5.38-6.42-8.13-9.58-.04 3.32-.03 6.65-.05 9.97-.78-.26-2.34-.77-3.12-1.03-.57-4.04-.27-8.13-.28-12.19zm18.98.1c.88 0 2.62.01 3.5.01 0 4.27 0 8.55.01 12.82-.88.02-2.64.04-3.52.05 0-4.29 0-8.59.01-12.88zm5.31 3.12c.48-3.35 4.46-3.3 7.05-3.31 3.24.09 7.92-.69 9.29 3.18.16.6.49 1.8.65 2.4l-3.58-.08c-1.43-4.23-6.82-1.89-10.12-2.25-.02 2.26-.01 4.52.04 6.78 3.09.15 6.18.17 9.27.14.13-.65.38-1.96.51-2.62l3.23-.04c-.34 1.95-.04 5.03-2.66 5.39-3.71.51-7.56.59-11.24-.08-3.68-1.47-2.65-6.4-2.44-9.51z"/><path fill="#137ebe" d="M33.75 16.27c.4-.67.82-1.32 1.26-1.97.21 3.47.2 6.95-.01 10.42-.43-.66-.85-1.33-1.26-2.01.26-2.14.27-4.3.01-6.44z"/><path fill="#fff" d="M2.36 16.31c1.41 1.21.85 4.57.33 6.37-1.5-1.23-1-4.58-.33-6.37z"/><path fill="#137ebe" d="M16.03 18.84c.68-.94 1.37-1.87 2.06-2.8 1.33 2.19 2.61 4.42 3.85 6.66-1.98-1.28-3.94-2.57-5.91-3.86z"/><path fill="#fff" d="M66.51 22.62c.05-2.26-.04-4.53.25-6.77 3.2-.23 6.42-.09 9.62.01.07 2.23.01 4.47-.2 6.69-3.22.08-6.45.08-9.67.07z"/><path fill="#137ebe" d="M32.62 25.44c.4.02 1.19.05 1.59.07.45 1.07-1.49 3.35-2.06 1.59.12-.41.36-1.24.47-1.66z"/><path fill="#71706f" d="M109.45 28.52c1.9-.26 2.44 2.24 3.59 3.3l.56-3.06c1.74-.14 3.49-.06 5.23-.01-.07 1.34-.15 2.69-.23 4.03-3.97.03-7.94-.63-11.91-.18.89-1.38 1.7-2.82 2.76-4.08zm11.2-.38c1.56.59 2.97 1.47 4.32 2.45.27-.53.82-1.57 1.1-2.1.08 1.7.13 3.39.15 5.09-1.42-1.02-2.75-2.15-4.06-3.31l-.84 3.37c-.34-1.82-.51-3.66-.67-5.5zm38.91 1.66c1.11-.63 2.22-1.25 3.34-1.86-.62.86-1.25 1.73-1.88 2.58.68.95 1.37 1.9 2.06 2.84-1.19-.6-2.37-1.22-3.53-1.86-.41.1-1.23.31-1.65.42-.02-.73-.07-2.18-.1-2.91.44.2 1.32.59 1.76.79zm-33.09-1.14c3.79.04 7.61-.33 11.37.22.72.76 1.39 1.55 2.02 2.39.26-.84.8-2.51 1.07-3.35.75 1 1.5 2.01 2.24 3.02.6-.69 1.79-2.07 2.38-2.76-.84 1.44-.47 4.98-2.92 4.73-.26-.44-.78-1.34-1.05-1.79-.94.74-1.89 1.48-2.84 2.2-.59-1.48-1.18-2.97-1.77-4.45-1.34 1.31-2.24 2.93-3.04 4.6-.19-1.3-.38-2.6-.56-3.9-1.54.6-3.08 1.18-4.63 1.74 1.26.41 2.52.85 3.76 1.33-1.93.11-3.86.16-5.79.21-.09-1.4-.16-2.8-.24-4.19zm19.08 0c1.89-.03 3.8-.05 5.7-.05-.01 1.39-.02 2.79-.04 4.18-1.72.02-3.44.03-5.16.03-.18-1.38-.35-2.77-.5-4.16zm6.2-.02c1.88 0 3.77.02 5.65.04.04 1.37.09 2.74.15 4.11-1.91-.51-3.86-.59-5.79-.19-.01-1.32-.01-2.64-.01-3.96z"/><path fill="#fff" d="M115.17 29.94c1.66-.56 2.24-.04 1.76 1.56-1.66.57-2.24.05-1.76-1.56zm32.12.05c.96-1.36 3.72-.01 2.52 1.53-.96 1.33-3.7.01-2.52-1.53zm6.18.08c1.13-.94 1.78-.69 1.94.74-1.14.95-1.78.71-1.94-.74z"/></svg>