<svg version="1" xmlns="http://www.w3.org/2000/svg" width="218.667" height="49.333" viewBox="0 0 164.000000 37.000000"><path d="M11.8 3.1C4.3 6.9 1.7 10.7 1.2 18.5c-.7 13.4 9.1 20.7 23.4 17.3 5.3-1.3 6.6-1.3 8.8-.1 1.4.7 2.6 1 2.6.6-.1-.8-19.5-12.6-21.7-13.1-.7-.2-1.8.8-2.4 2.2-1 2-1.9 2.6-4.5 2.6H4.1l2.8-4.3C9.4 20 9.7 18.8 9.4 13c-.3-5.7 0-6.8 1.7-7.8 1.8-1.2 1.9-1.1 1 .7-1.3 2.3-1.4 7.8-.3 8.5.5.3 1.6-.8 2.6-2.5 3.4-5.8 4.7-4.7 16.3 14l2.1 3.4 1.3-2.4c2.3-4.3 1.7-12.1-1.4-16.8-2.9-4.4-9-8.1-13.2-8.1-1.5 0-2.4-.4-2-1 .8-1.3 1-1.4-5.7 2.1zm34.8 15.4c-2.5 3.6-4.6 6.8-4.6 7 0 1.4 6 .2 7.5-1.5 1.1-1.2 1.3-2 .6-2-.7 0-.6-.9.5-2.5 1.6-2.5 1.7-2.5 3-.6.8 1.1 1.1 2.6.8 3.4-.9 2.6 3 3.7 12.6 3.7 11.6 0 13-.7 13-6.5 0-5.9-2.3-7.5-10.7-7.5H63v13.4l-4.6-6.7C55.8 15 53.2 12 52.5 12c-.8 0-3.4 2.9-5.9 6.5zM81 19c0 6.3.2 7 2 7 1.7 0 2-.7 2-4.8l.1-4.7 2.7 4.7c1.5 2.7 3.4 4.8 4.2 4.8.8 0 2.7-2.1 4.2-4.8l2.7-4.7.1 4.7V26h4.4c2.9 0 5.1-.6 6.2-1.7 1-1.1 1.3-1.8.6-2.1-.8-.2-.6-1.2.5-2.8 1.5-2.4 1.6-2.4 2.9-.5.8 1.1 1.1 2.6.8 3.4-.8 2.1 2.5 3.7 7.5 3.7h4l.3-4.7.3-4.7 3.5 4.7c2.9 3.8 4.1 4.6 6.8 4.7h3.2v-7c0-6.3-.2-7-2-7-1.7 0-2 .7-2 4.7v4.8l-4.1-4.8c-3.3-3.8-4.7-4.7-6.8-4.5-2.4.3-2.6.8-3.1 5.7l-.5 5.5-3.8-5.7c-2-3.1-4.4-5.7-5.2-5.7-.8 0-3.2 2.6-5.2 5.7l-3.8 5.7-.5-5.5c-.5-4.9-.7-5.4-3-5.7-2.1-.2-3 .5-4.9 3.8-1.2 2.2-2.6 4-3.1 4s-1.9-1.8-3.1-4c-1.8-3.2-2.8-4-5.1-4H81v7zm67.8-5.9c-2.3 1.3-2.5 10.1-.4 11.8.9.7 4 1.1 7.8.9 6-.3 6.3-.4 6.6-3.1.2-1.9-.1-2.7-1.2-2.7-.9 0-1.6.4-1.6 1 0 .5-2 1-4.5 1-4.3 0-4.5-.1-4.5-3 0-2.8.2-3 3.9-3 2.5 0 4.1.5 4.5 1.5.3.8 1.2 1.5 2.1 1.5 2.2 0 1.9-4.7-.4-6-2.5-1.3-10.1-1.3-12.3.1zm-28.1 15.6c-1.1 1-.8 4.3.3 4.3.6 0 1-.5 1-1.2 0-.9.3-.9 1.2 0 1.9 1.9 8.6 1.5 9.1-.6.4-1.6.5-1.6.6 0 .1 2.2 2.1 2.4 2.1.3 0-.8.5-1.5 1-1.5.6 0 1.3.7 1.6 1.5.7 1.8 3.4 2 3.4.2 0-.8.2-.9.8-.1.4.8 4.4 1.2 11 1.1 8.1 0 10-.2 9.2-1.2-.8-.9-.7-1.4.2-1.8.7-.2 1-.8.6-1.2-.4-.4-1.4-.2-2.3.5-.9.8-1.5.8-1.5.2 0-.7-2.9-1.1-7.5-1.1-5 0-7.5.4-7.5 1.2 0 .8-.3.8-1.2-.1-1.7-1.7-2.6-1.5-3.1.5-.4 1.7-.5 1.7-.6 0-.1-1.4-1.1-1.7-7.1-1.7-4.8 0-7 .4-7 1.2 0 .9-.3.9-1.2 0-1.4-1.4-2.2-1.5-3.1-.5z"/></svg>