<svg width="490pt" height="155pt" viewBox="0 0 490 155" xmlns="http://www.w3.org/2000/svg"><path d="M0 0h490v155H0V0z"/><path fill="#fff" d="M1 1h88v153H1V1zm89 0h310v116H90V1zm311 0h88v153h-88V1z"/><path d="M23.5 22.72c.5-.93 1-1.85 1.51-2.78.48.92.97 1.83 1.45 2.75 1.18.27 2.35.53 3.52.79l-2.32 2.32c.11.8.32 2.4.43 3.19-1.03-.45-2.06-.9-3.09-1.36-1.03.46-2.06.91-3.09 1.37.11-.8.32-2.39.43-3.19-.77-.78-1.55-1.56-2.32-2.34l3.48-.75zm20.01-.01c.5-.92.99-1.84 1.49-2.76.5.92.99 1.84 1.48 2.76 1.17.26 2.34.51 3.5.77l-2.32 2.32c.11.8.32 2.39.43 3.19-1.03-.45-2.06-.9-3.09-1.36-1.03.46-2.06.91-3.09 1.37.11-.8.32-2.4.43-3.19-.78-.78-1.55-1.56-2.32-2.34 1.16-.25 2.33-.5 3.49-.76zm20.02 0c.46-.89.92-1.78 1.39-2.67.87 2.2 2.69 3.34 5.03 3.52-.77.74-1.53 1.49-2.29 2.24.1.8.32 2.39.43 3.19-1.03-.45-2.06-.9-3.09-1.36-1.03.46-2.06.91-3.08 1.37.1-.8.31-2.4.42-3.2-.78-.77-1.55-1.55-2.32-2.33 1.17-.25 2.34-.5 3.51-.76zm356.53.85c2.33-.15 4.11-1.38 5.06-3.5.35.67 1.03 2 1.37 2.67 1.16.25 2.33.49 3.5.74-.78.78-1.56 1.56-2.33 2.34.11.79.32 2.39.43 3.18-1.04-.45-2.07-.9-3.09-1.36-1.03.46-2.06.91-3.09 1.37.11-.8.32-2.41.43-3.21-.77-.74-1.52-1.49-2.28-2.23zm23.36-.86c.53-.85 1.05-1.72 1.65-2.53.36.63 1.09 1.89 1.45 2.51 1.15.28 2.3.55 3.45.81-.77.77-1.55 1.54-2.31 2.32.11.79.32 2.39.43 3.18-1.04-.45-2.07-.9-3.09-1.36-1.04.46-2.06.91-3.08 1.37.1-.8.31-2.4.41-3.2-.77-.77-1.54-1.54-2.3-2.31 1.12-.26 2.25-.52 3.39-.79zm21.5-2.72c.53.91 1.06 1.81 1.6 2.72 1.14.27 2.31.53 3.47.79-.78.77-1.56 1.54-2.33 2.31.11.8.32 2.39.43 3.19-1.04-.45-2.07-.9-3.09-1.36-1.03.46-2.06.91-3.08 1.37.1-.8.31-2.4.41-3.2-.77-.77-1.55-1.54-2.31-2.31 1.18-.27 2.37-.55 3.57-.83.33-.67 1-2.01 1.33-2.68zm-121.26 5.1c3.64-1.1 7.31-2.11 11.01-3.02-.15 7.3-.03 14.62-.07 21.93 2.13.01 4.26.02 6.4.06.29.49.89 1.48 1.18 1.97-.3.49-.91 1.46-1.21 1.94-5.36-.01-10.72.21-16.06-.07-1.82-.04-2.1-2.74-.75-3.63 2.11-.43 4.29-.24 6.45-.28-.02-5.39-.02-10.78 0-16.17-2.2.11-5.31 2.48-6.89.05-.02-.69-.04-2.09-.06-2.78zm-231.7.93c1.71-3.04 5.32-1.79 8.16-2.02 3.66 5.47 7.42 10.87 11.13 16.3.03-4.1.01-8.21.02-12.32-.89.02-2.67.07-3.56.09-.9-1.34-.91-2.75-.01-4.1 3.12.11 6.27-.18 9.38.28 1.84 1.82.01 3.62-1.84 4.22.06 6.52.01 13.04.03 19.56-1.31-.02-2.62-.04-3.92-.07-3.68-5.41-7.42-10.79-11.09-16.21 0 4.03.03 8.05-.03 12.08 1.21.1 2.4.28 3.59.54 1.23.91.96 3.26-.71 3.54-2.91.04-6.03.56-8.83-.33-2.17-1.62.25-3.56 1.99-4.02 0-5.1-.02-10.21.01-15.31-1.8.02-3.24-.83-4.32-2.23zm77.9 10.03c-.35-7.21 6.73-13.02 13.71-12.09 4.73 1.31 9 5.02 9.62 10.1 1.25 6.39-3.46 12.59-9.63 14-6.96.92-14-4.85-13.7-12.01z"/><path fill="#fff" d="M200.33 28.08c4.58-.94 9.16 3.26 8.97 7.85.28 4.7-4.46 9.05-9.14 7.95-4-.81-6.9-4.95-6.17-9 .29-3.35 3.1-6.14 6.34-6.8z"/><path d="M23.51 43.71c.5-.92.99-1.84 1.49-2.76.5.92 1.01 1.85 1.51 2.78 1.16.25 2.32.49 3.47.74-.77.78-1.54 1.56-2.32 2.34.11.79.32 2.39.43 3.18-1.03-.45-2.06-.9-3.09-1.36-1.03.46-2.06.91-3.09 1.37.11-.8.32-2.4.43-3.19-.77-.78-1.55-1.56-2.32-2.33 1.17-.26 2.33-.51 3.49-.77zm16.54.83c2.37-.09 4.11-1.35 5.04-3.49.46.89.92 1.77 1.38 2.65l3.51.78c-.77.77-1.55 1.55-2.32 2.33.11.79.32 2.39.43 3.18-1.03-.45-2.06-.9-3.09-1.36-1.03.46-2.06.91-3.09 1.37.11-.8.32-2.4.43-3.2-.76-.76-1.53-1.51-2.29-2.26zm20.01.02c2.33-.16 4.14-1.34 5.02-3.52.47.89.93 1.78 1.4 2.67 1.16.26 2.33.51 3.5.76-.77.78-1.55 1.56-2.32 2.34.11.79.32 2.39.43 3.18-1.03-.45-2.06-.9-3.09-1.36-1.03.46-2.06.91-3.09 1.37.11-.8.32-2.4.43-3.2-.76-.75-1.52-1.5-2.28-2.24zm364.37-2.49c.83-2.06 1.43 1.18 2.12 1.6 1.13.28 2.27.56 3.42.83-.77.77-1.55 1.53-2.31 2.3.11.8.32 2.39.43 3.19-1.04-.45-2.07-.9-3.09-1.36-1.03.46-2.06.91-3.09 1.37.11-.8.32-2.4.43-3.2-.77-.75-1.53-1.5-2.29-2.25 1.74-.35 3.59-.66 4.38-2.48zm19.04 1.64c.52-.91 1.06-1.81 1.6-2.72.34.68 1.03 2.03 1.38 2.7 1.17.27 2.35.53 3.53.79-.78.77-1.55 1.55-2.32 2.33.11.79.32 2.39.43 3.18-1.04-.45-2.07-.9-3.09-1.36-1.03.46-2.06.91-3.08 1.37.1-.8.31-2.4.41-3.2-.77-.78-1.55-1.55-2.32-2.31 1.15-.26 2.3-.52 3.46-.78zm21.49-2.73c.5.9 1.01 1.8 1.53 2.71 1.15.27 2.32.53 3.49.8-.78.77-1.56 1.54-2.32 2.31.11.8.32 2.39.43 3.19-1.04-.45-2.07-.9-3.09-1.36-1.04.46-2.06.91-3.08 1.37.1-.8.31-2.4.41-3.2-.78-.77-1.54-1.55-2.31-2.32 1.17-.26 2.35-.52 3.53-.79.35-.68 1.05-2.03 1.41-2.71zm-188.73 1.21c1.33-.36 2.96-.5 3.82.82 2.02 1.98-.26 5.9-3 4.97-2.94-.17-3.52-4.72-.82-5.79zM20.05 65.55c2.35-.14 4.14-1.34 5.03-3.5l1.41 2.67 3.49.75c-.77.78-1.54 1.56-2.32 2.34.11.79.32 2.39.43 3.18-1.03-.45-2.06-.9-3.09-1.36-1.03.46-2.06.91-3.09 1.37.11-.8.32-2.4.43-3.2-.76-.75-1.52-1.5-2.29-2.25zm23.47-.85c.49-.92.99-1.84 1.48-2.76.5.92.99 1.84 1.48 2.77 1.17.26 2.33.51 3.5.77l-2.32 2.32c.11.8.32 2.39.42 3.19-1.02-.45-2.05-.9-3.08-1.36-1.03.46-2.06.91-3.09 1.37.11-.8.32-2.4.43-3.2-.78-.77-1.55-1.55-2.32-2.32 1.17-.26 2.34-.52 3.5-.78zm21.43-2.72c.52.9 1.04 1.81 1.55 2.72l3.48.78c-.77.78-1.55 1.55-2.32 2.32.11.8.32 2.39.43 3.19-1.03-.45-2.06-.9-3.09-1.36-1.03.46-2.06.91-3.09 1.37.11-.8.32-2.4.43-3.2l-2.31-2.31c1.18-.27 2.36-.54 3.54-.82.35-.67 1.04-2.02 1.38-2.69zm358.58 2.68c.5-.89 1.02-1.78 1.54-2.67.34.67 1.03 2.02 1.38 2.7 1.17.27 2.35.53 3.53.78-.77.78-1.56 1.55-2.32 2.34.11.79.32 2.38.43 3.18-1.04-.45-2.07-.9-3.09-1.36-1.04.46-2.06.91-3.09 1.37.11-.8.32-2.4.43-3.19l-2.31-2.31c1.16-.28 2.33-.55 3.5-.84zm16.53.9c2.26-.22 4.13-1.23 4.94-3.43.83 2.18 2.66 3.26 4.95 3.42-.77.75-1.54 1.5-2.29 2.25.11.8.32 2.39.43 3.19-1.04-.45-2.07-.9-3.1-1.36-1.03.46-2.05.91-3.08 1.37.11-.8.32-2.41.43-3.21-.77-.74-1.52-1.49-2.28-2.23zm23.37-.88c.53-.83 1.04-1.7 1.64-2.5.37.63 1.11 1.89 1.48 2.53 1.14.26 2.28.52 3.43.77l-2.32 2.32c.11.8.32 2.39.43 3.19-1.04-.45-2.07-.9-3.09-1.36-1.03.46-2.06.91-3.08 1.37.1-.8.31-2.4.41-3.2l-2.3-2.3c1.13-.27 2.26-.54 3.4-.82zM23.51 85.71c.5-.92.99-1.84 1.49-2.76l1.53 2.79c1.15.24 2.3.48 3.46.73-.78.78-1.55 1.55-2.33 2.34.11.79.32 2.39.42 3.18-1.02-.45-2.05-.9-3.08-1.36-1.03.46-2.06.91-3.09 1.37.11-.8.32-2.4.43-3.2-.78-.77-1.55-1.55-2.32-2.32 1.17-.26 2.33-.51 3.49-.77zm20.04-.03c.48-.92.96-1.83 1.45-2.74.49.92.99 1.84 1.48 2.76 1.16.26 2.33.52 3.5.78-.77.77-1.55 1.55-2.32 2.33.11.79.32 2.39.43 3.18-1.03-.45-2.06-.9-3.09-1.36-1.03.46-2.06.91-3.08 1.37.1-.8.31-2.4.42-3.2-.77-.77-1.55-1.54-2.32-2.32 1.18-.26 2.36-.53 3.53-.8zm19.99.01c.48-.92.97-1.83 1.46-2.74.5.92 1.01 1.85 1.51 2.78 1.16.25 2.32.49 3.47.74-.77.78-1.55 1.56-2.32 2.34.11.79.32 2.39.43 3.18-1.03-.45-2.06-.9-3.09-1.36-1.03.46-2.06.91-3.09 1.37.11-.8.32-2.39.43-3.19-.77-.78-1.54-1.55-2.31-2.33 1.17-.26 2.34-.52 3.51-.79zm359.93-.03c.51-.84 1.01-1.69 1.59-2.49l1.48 2.52c1.14.27 2.28.54 3.44.8-.78.77-1.55 1.54-2.32 2.31.11.8.32 2.39.42 3.19-1.03-.45-2.06-.9-3.08-1.36-1.04.46-2.06.91-3.09 1.37.11-.8.32-2.4.43-3.2-.78-.77-1.54-1.53-2.31-2.3 1.14-.27 2.29-.55 3.44-.84zm20 .08c.5-.93 1.02-1.86 1.54-2.79.49.92.98 1.84 1.48 2.76 1.16.26 2.32.51 3.49.76-.78.78-1.55 1.56-2.32 2.34.11.79.32 2.39.43 3.18-1.04-.45-2.07-.9-3.09-1.36-1.03.46-2.06.91-3.08 1.37.1-.8.31-2.4.41-3.2-.78-.78-1.55-1.56-2.32-2.33 1.15-.24 2.3-.48 3.46-.73zm20.02-.01c.5-.93 1-1.85 1.51-2.78.5.93 1.01 1.85 1.52 2.78 1.14.25 2.3.49 3.47.74-.78.78-1.56 1.55-2.33 2.33.11.8.32 2.4.42 3.19-1.03-.45-2.06-.9-3.08-1.36-1.03.46-2.06.91-3.08 1.37.1-.8.31-2.4.41-3.2-.78-.78-1.54-1.55-2.31-2.33 1.15-.25 2.31-.49 3.47-.74zm-345.94 6.21c2.29.06 4.58.06 6.88.07-.03.74-.07 2.22-.1 2.97l-1.23.04c-.03-.55-.1-1.64-.14-2.18-1.68.03-3.37.19-3.25 2.32.67-.35 2.01-1.06 2.68-1.42-.01.89-.02 2.67-.02 3.56l-2.44-1.44.24 2.79c.64.32 1.9.94 2.53 1.26-1.71.09-3.43.15-5.15.19 1.59-2.35 1.61-5.82 0-8.16zm28.76-.04c2.07.42 5.02-.76 6.41 1.35.55 1.35-.18 2.54-.92 3.61.91 1.14 1.83 2.27 2.72 3.42-2.67.07-3.5-2.91-5.78-3.72a6.61 6.61 0 0 0 1.58 3.49c-1 0-3-.01-4-.01 1.9-2.14 1.83-5.98-.01-8.14zm30.95.32c1.62-.26 3.26-.25 4.9-.34 1.05 2.61 1.06 5.63 0 8.24-1.85-.46-4.73.72-5.69-1.42.07-2.12-.82-4.77.79-6.48zm27.68-.52c1.68.17 3 .95 3.99 2.35-.58.43-1.16.88-1.72 1.32.1 1.79.27 3.59 1.91 4.65-1 .01-3 .02-4.01.03 1.43-2.55 1.33-5.86-.17-8.35z"/><path d="M208.81 91.97c1.35.01 2.7.03 4.06.04-.29.36-.88 1.08-1.18 1.44.05 2.34.07 4.69-.05 7.03-1.41-.87-2.32-2.27-3.36-3.5 2.34-1.02 2.59-3.39.53-5.01zm26.27.04c2.25-.01 4.49-.01 6.74.05-.25 1.23-.13 2.71-1.41 3.4-.09-.61-.26-1.84-.35-2.46H239v5.67c.62.32 1.85.98 2.47 1.3-1.83.05-3.65.04-5.47.05v-.96c.41-.04 1.23-.13 1.64-.17-.03-1.96-.04-3.93-.05-5.89h-1.12c0 .5-.01 1.5-.01 2h-1.24c-.04-.75-.1-2.24-.14-2.99zm58.08-.07c2.28.06 4.58.07 6.88.07-.02.83-.04 2.5-.05 3.34-1.03-1.3-2.08-2.64-3.91-2.61-.04.57-.11 1.72-.15 2.29.64-.32 1.93-.97 2.57-1.3l-.4 3.59c-.53-.37-1.6-1.09-2.13-1.45.01.78.03 2.35.05 3.13h2.67c.05-.5.14-1.51.18-2.01l1.32.02c.03.74.08 2.23.11 2.98-2.39 0-4.77.01-7.15.07 2.12-1.97 2.13-6.14.01-8.12zm28.86-.11c1.64.02 3.16.44 4.25 1.75-.91 2.06-2.42 4.98.26 6.43-1.33 0-2.65.02-3.97.05 1.45-1.93.88-4.4 1.04-6.64-.4-.39-1.18-1.19-1.58-1.59z"/><path d="M326.03 91.92L330 92c-1.19 2.61-.61 5.55-.77 8.32-1.87-.58-2.9-2.4-3.38-4.21.68.24 2.02.73 2.69.97-.63-1.84-.76-3.97-2.51-5.16zm26.09-.04c2.49-.15 4.97.09 6.53 2.29-.02 1.23-.02 2.45-.01 3.67-1.56 2.19-4.06 2.42-6.54 2.28 1.38-2.51 1.33-5.72.02-8.24z"/><path fill="#fff" d="M149.11 95.7c-.84-1.05-.12-3.37 1.5-2.75 2.26.7.22 4.33-1.5 2.75zm28.67-2.52c.92-.07 2.77-.2 3.69-.26.11 2.05.11 4.11 0 6.16-.92-.06-2.77-.19-3.7-.26-.03-1.88-.03-3.76.01-5.64zm176.69-.6c1.15.87 3.27 1.57 2.83 3.42.44 1.84-1.67 2.55-2.83 3.42-.09-2.28-.09-4.57 0-6.84z"/><path d="M265.04 96.27c1.28-.48 2.62-.6 4.04-.38 1.72-.32 1.64 1.56-.04 1.22-1.13-.19-3.77.69-4-.84zm-240.11 7.92c.6.81 1.13 1.68 1.69 2.53 1.12.25 2.24.51 3.36.76-.77.78-1.55 1.55-2.32 2.32.11.8.32 2.39.42 3.19-1.02-.45-2.05-.9-3.08-1.36-1.03.46-2.06.91-3.09 1.37.11-.8.32-2.4.43-3.2-.77-.77-1.54-1.54-2.31-2.3 1.16-.28 2.31-.55 3.47-.83.35-.62 1.07-1.86 1.43-2.48zm15.13 3.37c2.33-.17 4.14-1.34 5.03-3.52l1.35 2.64c1.18.27 2.36.54 3.54.8-.77.78-1.55 1.55-2.32 2.33.11.79.32 2.39.43 3.18-1.03-.45-2.06-.9-3.09-1.36-1.03.46-2.06.91-3.09 1.37.11-.8.32-2.4.43-3.2-.76-.75-1.52-1.5-2.28-2.24zm23.48-.88c.49-.91.98-1.82 1.48-2.73.48.91.96 1.82 1.44 2.74 1.17.26 2.34.53 3.52.79l-2.32 2.32c.11.8.32 2.39.43 3.19-1.03-.45-2.06-.9-3.09-1.36-1.03.46-2.06.91-3.09 1.37.11-.8.32-2.4.43-3.2-.77-.77-1.55-1.54-2.32-2.31 1.18-.27 2.35-.54 3.52-.81zm359.86.01c.54-.83 1.07-1.69 1.69-2.47.37.63 1.13 1.88 1.51 2.51 1.12.25 2.25.5 3.38.75-.78.77-1.55 1.55-2.32 2.33.11.79.32 2.39.43 3.18-1.04-.45-2.07-.9-3.09-1.36-1.03.46-2.06.91-3.09 1.37.11-.8.32-2.4.43-3.2-.78-.77-1.54-1.54-2.31-2.3 1.12-.27 2.24-.54 3.37-.81zm21.51-2.48c.61.8 1.14 1.66 1.72 2.5 1.11.27 2.22.52 3.35.78-.78.77-1.56 1.54-2.32 2.31.11.8.32 2.39.43 3.19-1.04-.45-2.07-.9-3.09-1.36-1.03.46-2.06.91-3.08 1.37.1-.8.31-2.4.41-3.2-.77-.77-1.54-1.54-2.3-2.31 1.14-.26 2.28-.53 3.43-.8.36-.62 1.09-1.86 1.45-2.48zm18.64 2.47c.48-.92.96-1.83 1.45-2.74.48.91.97 1.83 1.46 2.75 1.17.27 2.34.53 3.52.79-.78.77-1.55 1.55-2.32 2.32.11.8.32 2.4.43 3.19-1.04-.45-2.07-.9-3.09-1.36-1.03.46-2.06.91-3.08 1.37.1-.8.31-2.4.41-3.2-.78-.78-1.54-1.55-2.31-2.31 1.17-.27 2.35-.54 3.53-.81z"/><path fill="#fff" d="M90 118h310v36H90v-36z"/><path d="M24.94 125c.54.89 1.04 1.8 1.57 2.7 1.15.26 2.31.52 3.47.79-.77.77-1.55 1.54-2.32 2.31.11.8.32 2.39.43 3.19-1.03-.45-2.06-.9-3.09-1.36-1.03.46-2.06.91-3.08 1.37.1-.8.31-2.4.42-3.2l-2.32-2.32 3.51-.78 1.41-2.7zm18.46 2.71c.55-.85 1.07-1.71 1.67-2.52.37.63 1.12 1.89 1.49 2.52 1.14.26 2.28.52 3.42.77-.77.77-1.55 1.55-2.32 2.33.11.79.32 2.39.43 3.18-1.03-.45-2.06-.9-3.09-1.36-1.03.46-2.06.91-3.09 1.37.11-.8.32-2.4.43-3.2l-2.31-2.31c1.12-.26 2.24-.52 3.37-.78zm21.51-2.49c.62.79 1.14 1.65 1.71 2.48 1.12.27 2.24.53 3.36.79-.78.77-1.55 1.54-2.32 2.32.11.79.32 2.39.43 3.18-1.03-.45-2.06-.9-3.09-1.36-1.03.46-2.06.91-3.09 1.37.11-.8.32-2.4.43-3.19-.77-.78-1.54-1.55-2.31-2.32 1.15-.26 2.29-.54 3.44-.81.36-.62 1.08-1.84 1.44-2.46zm360.03-.22c.53.9 1.05 1.8 1.58 2.71 1.15.26 2.3.52 3.46.77-.78.77-1.55 1.55-2.32 2.32.11.8.32 2.39.42 3.19-1.03-.45-2.06-.9-3.08-1.36-1.03.46-2.06.91-3.09 1.37.11-.8.32-2.4.43-3.19-.79-.79-1.55-1.57-2.33-2.35 1.16-.24 2.33-.48 3.49-.73.36-.68 1.08-2.05 1.44-2.73zm15.12 3.57c2.25-.22 4.01-1.37 5.09-3.33.35.62 1.05 1.86 1.4 2.47 1.13.26 2.27.51 3.42.76-.77.78-1.55 1.56-2.31 2.34.11.8.32 2.39.43 3.18-1.04-.45-2.07-.9-3.09-1.36-1.03.46-2.06.91-3.09 1.37.11-.8.32-2.4.43-3.2-.77-.75-1.52-1.5-2.28-2.23zm24.87-3.39c.61.79 1.08 1.68 1.66 2.52 1.12.27 2.25.53 3.39.79-.78.77-1.56 1.54-2.32 2.31.11.8.32 2.4.43 3.19-1.04-.45-2.07-.9-3.09-1.36-1.03.46-2.06.91-3.08 1.37.1-.8.31-2.4.41-3.2-.78-.78-1.54-1.54-2.3-2.31 1.14-.26 2.29-.53 3.44-.8.36-.63 1.09-1.88 1.46-2.51zM117.3 135.89c1.57.27 3.67-.44 4.65 1.2-.06 1.6.76 3.88-1.04 4.79-1.2.11-2.4.19-3.61.23.53-2.05.54-4.17 0-6.22zm29.29-.03c1.95.1 3.97.05 5.78.91-1.13.75-2.04 1.69-2.22 3.09-.65-.07-1.96-.2-2.61-.27.04-1.33-.27-2.57-.95-3.73zm29.27.14c.64-.01 1.92-.04 2.57-.05-.57 1.72-.4 3.42.49 5.1.75-1.64 1.01-3.33.79-5.08.59 0 1.76.02 2.35.02-1.08 2.14-2.06 4.33-3.23 6.42-.96-2.15-1.91-4.3-2.97-6.41zm31.42 1.46c-1-.51-2.02-.97-3.01-1.5 2.11.02 4.22.04 6.33.04-.47 1.37-.8 2.94-1.75 4.03-1.23-.25-1.58-1.5-1.57-2.57zm27.57-1.52c1.47.03 2.94.06 4.42.08-.47.35-1.41 1.03-1.88 1.38.03.9.08 2.7.11 3.6h1.39l.44-2.53c1.05.89.88 2.29 1.08 3.5-1.86.03-3.72.04-5.57.08 2.03-1.57 1.92-4.49.01-6.11zm30.44.63c1.25-1.2 4.57-.95 4.46 1.32.4 1.87-.11 4.86-2.72 4.14-2.86.34-2.94-3.89-1.74-5.46zm28.96-.68c1.66.26 4.51-.62 4.98 1.65.55 1.85-1.86 2.69-3.24 2.73.61.43 1.83 1.27 2.44 1.7-1.41.03-2.81.07-4.21.1 1.29-1.87 1.13-4.26.03-6.18zm31.05 1.59c-1.02-.52-2.05-1-3.04-1.56 2.27.08 4.64-.1 6.82.72-1.36.83-1.73 2.13-2.16 3.5-1.22-.31-1.7-1.53-1.62-2.66zm27.69-1.51c1.41.01 2.83.02 4.24.02.49 1.28.63 2.6.04 3.89.46.63 1.4 1.87 1.86 2.49a49.65 49.65 0 0 1-4.68-2.73l1.71 2.38c-.79.01-2.38.01-3.17.01.99-1.95.98-4.11 0-6.06z"/><path fill="#fff" d="M119.29 137.27c1.88-.91 2.16 3.3.54 3.72-1.38-.52-1.11-2.67-.54-3.72zm147.89-.09c1.88.23 1.46 4.32-.51 3.44-.7-.93-.86-3.06.51-3.44zm29.18-.05c1.6-.51 2.13.05 1.58 1.7-1.6.51-2.12-.06-1.58-1.7zm58.92.11c3.38.13-1.57 3.11 0 0z"/><path d="M150.53 140.55c1.25-.96 2.34 1 .66 1.31-1.41.18-3.3.66-4.46-.39.34-1.75 2.66-.39 3.8-.92zm54.81.7c1.34-.81 3.08-.62 4.54-.23.9 1.23-4.29 1.63-4.54.23zm118 .4c.62-1.6 3.48-.62 4.93-.71-.26 1.63-3.6 1.17-4.93.71z"/></svg>